<svg width="512" height="512" viewBox="0 0 512 512" fill="none" xmlns="http://www.w3.org/2000/svg">
<rect width="512" height="512" rx="116" fill="url(#paint0_linear_1263_2)"/>
<rect width="512" height="512" rx="116" fill="url(#paint1_linear_1263_2)"/>
<rect x="92" y="180" width="186" height="151" rx="24" fill="white"/>
<path d="M158.796 239.372C158.796 234.329 158.3 230.899 157.308 229.08C156.316 227.261 154.704 226.352 152.472 226.352C150.736 226.352 149.331 226.807 148.256 227.716C147.264 228.625 146.479 230.237 145.9 232.552C145.404 234.867 145.073 238.008 144.908 241.976C144.743 245.861 144.66 250.78 144.66 256.732C144.66 262.684 144.743 267.644 144.908 271.612C145.073 275.497 145.404 278.597 145.9 280.912C146.479 283.227 147.264 284.839 148.256 285.748C149.331 286.657 150.736 287.112 152.472 287.112C153.877 287.112 155.035 286.781 155.944 286.12C156.853 285.376 157.556 284.177 158.052 282.524C158.548 280.871 158.879 278.68 159.044 275.952C159.292 273.141 159.416 269.628 159.416 265.412H181.736V271.984C181.736 278.184 180.909 283.268 179.256 287.236C177.603 291.204 175.412 294.345 172.684 296.66C169.956 298.892 166.815 300.38 163.26 301.124C159.788 301.951 156.192 302.364 152.472 302.364C146.024 302.364 140.733 301.579 136.6 300.008C132.467 298.437 129.243 295.833 126.928 292.196C124.613 288.476 123.001 283.723 122.092 277.936C121.265 272.067 120.852 264.999 120.852 256.732C120.852 248.3 121.348 241.149 122.34 235.28C123.415 229.411 125.192 224.657 127.672 221.02C130.152 217.383 133.417 214.779 137.468 213.208C141.519 211.555 146.52 210.728 152.472 210.728C157.68 210.728 162.103 211.389 165.74 212.712C169.377 214.035 172.312 215.936 174.544 218.416C176.859 220.813 178.512 223.748 179.504 227.22C180.579 230.609 181.116 234.453 181.116 238.752V244.332H158.796V239.372ZM218.95 230.568L212.626 268.14H225.522L219.198 230.568H218.95ZM233.582 212.464L255.158 301H230.606L228.25 285.5H209.898L207.542 301H183.362L204.566 212.464H233.582Z" fill="#2E3138"/>
<path d="M316.535 245.792H321.493C325.066 245.792 327.702 244.765 329.399 242.71C331.096 240.566 331.945 237.797 331.945 234.402C331.945 230.382 331.096 227.523 329.399 225.826C327.791 224.129 325.111 223.28 321.359 223.28H316.535V245.792ZM291.611 205.324H330.605C335.34 205.324 339.36 205.949 342.665 207.2C346.06 208.451 348.784 210.237 350.839 212.56C352.983 214.793 354.502 217.473 355.395 220.6C356.378 223.727 356.869 227.121 356.869 230.784C356.869 237.216 355.574 242.397 352.983 246.328C350.392 250.259 346.238 252.671 340.521 253.564V253.832C346.506 254.368 350.616 256.467 352.849 260.13C355.082 263.793 356.199 268.84 356.199 275.272V283.446C356.199 284.697 356.199 285.992 356.199 287.332C356.199 288.672 356.244 289.967 356.333 291.218C356.422 292.379 356.556 293.451 356.735 294.434C356.914 295.417 357.137 296.176 357.405 296.712C357.762 297.248 358.12 297.784 358.477 298.32C358.834 298.767 359.415 299.213 360.219 299.66V301H333.687C333.062 299.749 332.57 298.275 332.213 296.578C331.945 294.881 331.722 293.183 331.543 291.486C331.454 289.789 331.364 288.181 331.275 286.662C331.275 285.054 331.275 283.759 331.275 282.776V276.344C331.275 273.664 331.141 271.431 330.873 269.644C330.605 267.857 330.114 266.473 329.399 265.49C328.774 264.418 327.925 263.703 326.853 263.346C325.87 262.899 324.62 262.676 323.101 262.676H316.535V301H291.611V205.324ZM368.556 205.324H404.736C411.972 205.324 417.6 206.664 421.62 209.344C425.64 211.935 428.633 215.463 430.598 219.93C432.653 224.307 433.903 229.399 434.35 235.206C434.797 240.923 435.02 246.909 435.02 253.162C435.02 259.415 434.797 265.445 434.35 271.252C433.903 276.969 432.653 282.061 430.598 286.528C428.633 290.905 425.64 294.434 421.62 297.114C417.6 299.705 411.972 301 404.736 301H368.556V205.324ZM393.48 283.044H398.438C400.85 283.044 402.771 282.731 404.2 282.106C405.629 281.391 406.701 279.962 407.416 277.818C408.22 275.674 408.711 272.637 408.89 268.706C409.158 264.775 409.292 259.594 409.292 253.162C409.292 246.73 409.158 241.549 408.89 237.618C408.711 233.687 408.22 230.65 407.416 228.506C406.701 226.362 405.629 224.977 404.2 224.352C402.771 223.637 400.85 223.28 398.438 223.28H393.48V283.044Z" fill="white"/>
<g clip-path="url(#clip0_1263_2)">
<mask id="mask0_1263_2" style="mask-type:luminance" maskUnits="userSpaceOnUse" x="245" y="6" width="200" height="190">
<path d="M445 6H245V195.062H445V6Z" fill="white"/>
</mask>
<g mask="url(#mask0_1263_2)">
<path opacity="0.955" fill-rule="evenodd" clip-rule="evenodd" d="M359.648 5.81543C362.382 5.81543 365.117 5.81543 367.851 5.81543C377.397 8.57913 382.214 14.7335 382.304 24.2786C394.935 24.2171 407.565 24.2786 420.195 24.4632C428.073 25.879 433.086 30.2485 435.234 37.572C435.494 85.5762 435.494 133.58 435.234 181.584C433.405 188.667 428.783 193.098 421.367 194.878C387.903 194.878 354.44 194.878 320.976 194.878C314.985 193.399 310.818 189.953 308.476 184.539C303.784 185.032 299.096 185.586 294.414 186.2C284.499 187.516 277.532 183.885 273.515 175.307C266.943 129.547 260.563 83.7583 254.375 37.9413C252.815 27.6488 257.177 20.8174 267.46 17.4472C298.253 13.6244 328.982 9.74719 359.648 5.81543ZM360.429 13.5699C368.691 12.6406 373.248 16.0871 374.101 23.9093C356.121 24.1051 338.153 24.4128 320.195 24.8324C313.619 26.6172 309.387 30.6176 307.5 36.8335C306.918 83.4727 306.723 130.123 306.914 176.784C300.579 177.856 294.199 178.41 287.773 178.446C284.748 177.432 282.599 175.525 281.328 172.722C274.969 127.566 268.719 82.3926 262.578 37.2028C261.214 30.8733 263.753 26.7499 270.195 24.8324C300.342 21.1628 330.42 17.4087 360.429 13.5699ZM323.32 32.0331C355.351 31.9715 387.383 32.0331 419.414 32.2177C423.185 33.0757 425.725 35.2297 427.031 38.6798C427.291 85.9454 427.291 133.211 427.031 180.477C425.576 184.646 422.516 186.923 417.851 187.308C386.862 187.554 355.872 187.554 324.882 187.308C319.798 186.933 316.608 184.41 315.312 179.738C315.051 133.088 315.051 86.4376 315.312 39.7876C316.229 35.5364 318.898 32.9515 323.32 32.0331Z" fill="#FEFEFE"/>
<mask id="mask1_1263_2" style="mask-type:luminance" maskUnits="userSpaceOnUse" x="330" y="64" width="87" height="86">
<path d="M416.094 64.5938H330.938V149.75H416.094V64.5938Z" fill="white"/>
</mask>
<g mask="url(#mask1_1263_2)">
<path opacity="0.978" fill-rule="evenodd" clip-rule="evenodd" d="M359.461 64.5105C360.292 64.5105 361.124 64.5105 361.955 64.5105C363.213 65.0195 364.128 65.9066 364.7 67.1718C364.939 69.0996 365.022 71.0398 364.949 72.9929C372.379 72.9652 379.807 72.9929 387.236 73.0761C389.29 73.6843 390.399 75.0703 390.563 77.2339C390.421 79.5933 389.201 81.0347 386.904 81.5585C384.646 81.5878 382.4 81.671 380.168 81.8078C377.713 93.0632 373.083 103.292 366.28 112.494C367.257 113.527 368.172 114.607 369.024 115.737C369.947 118.236 369.309 120.204 367.111 121.642C365.315 122.352 363.652 122.13 362.122 120.977C361.709 120.37 361.211 119.843 360.625 119.396C353.75 126.856 345.766 132.816 336.675 137.276C333.863 137.977 331.923 137.007 330.854 134.365C330.854 133.589 330.854 132.813 330.854 132.037C331.174 131.096 331.729 130.293 332.517 129.625C341.123 125.427 348.607 119.744 354.97 112.577C351.261 107.389 348.129 101.845 345.573 95.9453C344.803 92.948 345.884 90.98 348.816 90.041C350.624 89.7664 352.093 90.3484 353.224 91.7871C355.264 96.5343 357.731 101.025 360.625 105.259C365.643 98.1417 369.191 90.3246 371.27 81.8078C358.962 81.6695 346.654 81.5863 334.346 81.5585C332.577 81.2023 331.413 80.1765 330.854 78.4816C330.854 77.6499 330.854 76.8183 330.854 75.9867C331.444 74.5378 332.497 73.5675 334.014 73.0761C341.443 72.9929 348.871 72.9652 356.301 72.9929C356.273 71.3289 356.301 69.6656 356.384 68.0035C356.74 66.2343 357.766 65.0699 359.461 64.5105Z" fill="white"/>
<path opacity="0.98" fill-rule="evenodd" clip-rule="evenodd" d="M416.01 144.178C416.01 145.01 416.01 145.841 416.01 146.673C415.4 148.059 414.402 149.057 413.016 149.667C412.185 149.667 411.353 149.667 410.522 149.667C409.556 149.284 408.752 148.674 408.11 147.837C406.33 144.248 404.528 140.673 402.705 137.11C394.555 136.999 386.405 136.999 378.256 137.11C376.488 140.562 374.741 144.026 373.016 147.505C372.373 148.51 371.514 149.231 370.438 149.667C369.607 149.667 368.775 149.667 367.943 149.667C365.443 148.602 364.472 146.717 365.033 144.012C372.296 129.487 379.558 114.961 386.821 100.436C388.494 98.3823 390.518 97.9666 392.892 99.1881C393.418 99.4932 393.834 99.9088 394.139 100.436C401.437 115.032 408.727 129.613 416.01 144.178ZM390.397 112.577C393.074 117.793 395.736 123.032 398.38 128.294C393.113 128.405 387.847 128.405 382.58 128.294C385.254 123.085 387.859 117.846 390.397 112.577Z" fill="#FD646E"/>
</g>
</g>
</g>
<defs>
<linearGradient id="paint0_linear_1263_2" x1="256" y1="512" x2="256" y2="3.33507e-06" gradientUnits="userSpaceOnUse">
<stop stop-color="#18191D"/>
<stop offset="1" stop-color="#454A54"/>
</linearGradient>
<linearGradient id="paint1_linear_1263_2" x1="256" y1="512" x2="256" y2="3.33507e-06" gradientUnits="userSpaceOnUse">
<stop stop-color="#18191D"/>
<stop offset="1" stop-color="#454A54"/>
</linearGradient>
<clipPath id="clip0_1263_2">
<rect width="200" height="189.062" fill="white" transform="translate(245 6)"/>
</clipPath>
</defs>
</svg>
