<svg width="320" height="350" viewBox="0 0 320 350" fill="none" xmlns="http://www.w3.org/2000/svg">
<path d="M16.1187 289.569V275.01H19.2384C21.6649 275.01 23.3981 275.559 24.438 276.657C25.5357 277.754 26.0846 279.603 26.0846 282.203C26.0846 284.398 25.5357 286.189 24.438 287.576C23.3403 288.905 21.636 289.569 19.3251 289.569H16.1187ZM0 263.398V325.273H16.1187V300.488H20.365C21.3472 300.488 22.156 300.633 22.7915 300.921C23.4848 301.152 24.0336 301.615 24.438 302.308C24.9002 302.943 25.218 303.839 25.3913 304.994C25.5646 306.15 25.6513 307.594 25.6513 309.327V313.487C25.6513 314.123 25.6513 314.96 25.6513 316C25.709 316.982 25.7668 318.022 25.8246 319.12C25.9401 320.218 26.0846 321.315 26.2579 322.413C26.489 323.511 26.8067 324.464 27.2111 325.273H44.3697V324.406C43.8498 324.117 43.4743 323.828 43.2432 323.54C43.0121 323.193 42.781 322.846 42.5499 322.5C42.3766 322.153 42.2321 321.662 42.1166 321.026C42.001 320.391 41.9144 319.698 41.8566 318.947C41.7988 318.138 41.7699 317.3 41.7699 316.433C41.7699 315.567 41.7699 314.729 41.7699 313.92V308.634C41.7699 304.474 41.0478 301.21 39.6035 298.842C38.1591 296.473 35.5016 295.115 31.6308 294.769V294.595C35.3282 294.018 38.0147 292.458 39.6901 289.916C41.3655 287.374 42.2032 284.023 42.2032 279.863C42.2032 277.494 41.8855 275.299 41.25 273.277C40.6723 271.255 39.6901 269.522 38.3036 268.077C36.9748 266.575 35.2127 265.42 33.0173 264.611C30.8797 263.802 28.2799 263.398 25.218 263.398H0Z" fill="#545453"/>
<path d="M49.7616 263.398V325.273H87.1986V312.1H65.8803V299.795H85.1187V287.143H65.8803V276.57H86.4186V263.398H49.7616Z" fill="#545453"/>
<path d="M93.0914 263.398V325.273H109.21V299.795H128.449V287.143H109.21V276.57H129.748V263.398H93.0914Z" fill="#545453"/>
<path fill-rule="evenodd" clip-rule="evenodd" d="M147.454 239C143.609 239 140.491 242.118 140.491 245.964V342.682C140.491 346.528 143.609 349.646 147.454 349.646H313.036C316.882 349.646 320 346.528 320 342.682V245.964C320 242.118 316.882 239 313.036 239H147.454ZM208.425 325.273V263.398H251.148V270.331H216.657V290.002H248.808V296.935H216.657V318.34H251.408V325.273H208.425ZM160.271 263.398V325.273H201.261V318.34H168.504V263.398H160.271ZM254.643 325.273L276.134 293.469L255.769 263.398H265.648L281.074 287.576L297.192 263.398H306.378L285.927 293.469L307.678 325.273H297.626L280.987 299.708L263.828 325.273H254.643Z" fill="#545453"/>
<path opacity="0.935" fill-rule="evenodd" clip-rule="evenodd" d="M158.185 91.4258C161.425 90.9765 163.747 92.1875 165.148 95.0586C165.251 98.5073 165.553 101.938 166.056 105.352C190.476 109.994 205.007 124.525 209.65 148.945C213.063 149.448 216.494 149.751 219.943 149.854C222.913 151.255 224.023 153.575 223.273 156.816C222.566 158.33 221.456 159.44 219.943 160.146C209.448 160.55 198.953 160.55 188.458 160.146C183.614 156.715 183.614 153.285 188.458 149.854C191.681 149.551 194.91 149.45 198.146 149.551C194.714 131.185 183.816 120.287 165.45 116.855C165.551 120.091 165.45 123.32 165.148 126.543C163.194 129.731 160.47 130.64 156.974 129.268C156.036 128.533 155.33 127.624 154.855 126.543C154.553 123.32 154.451 120.091 154.552 116.855C140.233 119.366 130.041 127.237 123.976 140.469C122.79 143.393 122.084 146.42 121.857 149.551C125.092 149.45 128.321 149.551 131.544 149.854C136.388 153.285 136.388 156.715 131.544 160.146C128.321 160.449 125.092 160.55 121.857 160.449C125.288 178.815 136.186 189.713 154.552 193.145C154.451 189.909 154.553 186.68 154.855 183.457C156.808 180.269 159.532 179.36 163.028 180.732C163.966 181.467 164.672 182.376 165.148 183.457C165.45 186.68 165.551 189.909 165.45 193.145C175.947 191.435 184.626 186.49 191.485 178.311C198.045 176.797 200.568 179.32 199.054 185.879C190.572 196.43 179.573 202.687 166.056 204.648C165.705 208.531 165.2 212.366 164.542 216.152C160.798 219.631 157.568 219.227 154.855 214.941C154.752 211.493 154.449 208.062 153.946 204.648C129.526 200.006 114.995 185.475 110.353 161.055C106.939 160.552 103.508 160.249 100.06 160.146C96.3306 158.078 95.5235 155.151 97.6378 151.367C98.3432 150.711 99.1503 150.206 100.06 149.854C103.508 149.751 106.939 149.448 110.353 148.945C114.995 124.525 129.526 109.994 153.946 105.352C154.449 101.938 154.752 98.5073 154.855 95.0586C155.473 93.333 156.583 92.1221 158.185 91.4258Z" fill="#545453"/>
<path opacity="0.938" fill-rule="evenodd" clip-rule="evenodd" d="M159.394 144.102C169.118 145.65 172.448 151.1 169.384 160.449C163.128 167.715 156.871 167.715 150.615 160.449C147.575 151.668 150.501 146.219 159.394 144.102Z" fill="#FF3D3D"/>
<path d="M162.422 0H157.578C156.382 0.694098 155.474 1.70321 154.854 3.02734C154.551 8.87672 154.45 14.7296 154.551 20.5859C137.485 21.1936 121.137 24.9273 105.508 31.7871C56.3861 55.6254 29.7454 94.88 25.5859 149.551C19.7296 149.45 13.8767 149.551 8.02734 149.854C6.70321 150.474 5.6941 151.382 5 152.578V157.422C5.6941 158.618 6.70321 159.526 8.02734 160.146C13.8767 160.449 19.7296 160.55 25.5859 160.449C26.1935 177.514 29.9272 193.861 36.7871 209.492C39.0366 214.128 41.4234 218.564 43.9476 222.8C44.4831 223.698 45.4554 224.242 46.5014 224.242H52.1217C54.5352 224.242 55.9752 221.525 54.7007 219.475C38.7074 193.754 33.3417 164.391 38.6035 131.387C48.8296 87.0561 74.9655 56.2778 117.012 39.0527C157.383 25.2391 195.325 30.0829 230.84 53.584C267.924 81.4422 285.382 118.679 283.213 165.293C280.691 185.881 274.754 203.95 265.403 219.499C264.167 221.555 265.612 224.242 268.01 224.242H273.769C274.825 224.242 275.806 223.688 276.335 222.774C286.949 204.46 292.975 183.685 294.414 160.449C300.27 160.55 306.123 160.449 311.973 160.146C313.297 159.526 314.306 158.618 315 157.422V152.578C314.306 151.382 313.297 150.474 311.973 149.854C306.123 149.551 300.27 149.45 294.414 149.551C293.807 132.486 290.073 116.139 283.213 100.508C259.374 51.3861 220.12 24.7454 165.449 20.5859C165.55 14.7296 165.449 8.87672 165.146 3.02734C164.526 1.70321 163.618 0.694098 162.422 0Z" fill="#545453"/>
<path fill-rule="evenodd" clip-rule="evenodd" d="M242.646 107.168C220.865 73.2526 189.684 57.5103 149.101 59.9414C134.093 61.9897 120.167 67.1362 107.324 75.3809C106.597 75.9276 106.092 76.6336 105.81 77.5C104.475 83.2326 106.796 85.7556 112.773 85.0684C132.228 72.2972 153.42 68.0589 176.348 72.3535C215.147 82.2905 237.651 107.014 243.857 146.523C245.13 177.178 235.54 201.121 215.086 218.353C212.825 220.258 214.104 224.242 217.06 224.242H224.221C224.992 224.242 225.736 223.946 226.287 223.405C237.021 212.866 245.3 199.348 251.123 182.852C258.596 156.456 255.77 131.228 242.646 107.168ZM93.8638 223.391C94.4166 223.94 95.1665 224.242 95.9457 224.242H102.935C105.87 224.242 107.166 220.312 104.93 218.411C102.146 216.045 99.4123 213.475 96.7284 210.703C72.4964 180.153 69.2674 147.458 87.0409 112.617C87.9909 109.514 87.0827 107.193 84.3163 105.654C82.0494 105.092 79.9303 105.395 77.9589 106.562C74.1124 112.844 71.085 119.504 68.8769 126.543C61.7446 151.641 63.9647 175.86 75.537 199.199C80.938 208.556 87.0469 216.62 93.8638 223.391Z" fill="#545453"/>
</svg>
